<svg width="365" height="27" viewBox="0 0 365 27" fill="none" xmlns="http://www.w3.org/2000/svg">
<path d="M96.36 1.16845C94.0078 2.37775 92.3044 5.11883 91.3311 8.9886C90.9256 10.6816 90.4389 11.1653 89.5467 10.8429C85.41 9.23046 82.2467 9.47232 79.2456 11.4878L76.1633 13.5839H38.1222C4.78556 13.5839 0 13.7452 0 14.7932C0 15.8413 4.70444 16.0025 37.7167 16.0025C73.5678 16.0025 75.4333 16.0832 75.4333 17.4537C75.4333 18.2599 76.1633 19.7111 77.0556 20.6785C79.1644 22.8553 79.8133 22.9359 78.6778 20.9204C78.2722 20.0336 77.8667 18.4211 77.8667 17.2925C77.8667 11.6491 85.7344 11.1653 92.0611 16.4863C98.0633 21.5653 101.876 23.2584 107.472 23.2584C113.961 23.2584 118.909 21.7266 131.968 15.9219C145.27 9.95604 152.246 8.34363 159.221 9.63356C165.304 10.6816 168.711 12.0522 170.333 13.987C171.469 15.3576 171.388 15.4382 169.928 14.8739C166.116 13.4227 159.627 12.6165 156.139 13.1002C150.542 13.987 147.541 16.97 147.136 22.0491C146.892 25.1932 146.973 25.5157 147.46 23.6615C148.677 19.3886 149.893 17.8568 153.381 16.4863C158.41 14.4708 167.17 16.0832 176.254 20.5979C180.31 22.6134 181.932 22.694 179.661 20.8398C178.282 19.7111 178.039 17.9374 179.337 17.2118C180.472 16.4863 182.906 18.8242 184.122 21.7266C185.014 23.8227 185.339 23.9839 186.474 22.9359C190.449 19.4692 202.453 15.1963 208.212 15.1963C211.457 15.1963 215.756 16.8894 217.297 18.7436C217.946 19.4692 218.757 21.4847 219.081 23.0971L219.649 26.0801L219.73 22.7746C219.973 14.5514 209.997 10.4398 198.317 13.987C193.856 15.277 192.72 15.0351 195.64 13.4227C201.723 10.0367 210.97 9.47232 219.162 11.9715C222.001 12.8584 228.247 15.3576 233.032 17.6149C243.171 22.3715 249.173 24.0646 255.906 24.0646C261.827 24.0646 265.72 22.3715 271.641 17.2925C276.183 13.5033 280.482 11.6491 282.916 12.5359C285.511 13.4227 287.133 15.4382 287.214 17.9374L287.296 20.4367L288.188 18.1793L289.08 16.0025H327.04C360.214 16.0025 365 15.8413 365 14.7932C365 13.7452 360.214 13.5839 326.797 13.5839H288.593L286.16 11.5684C283.24 9.14984 279.752 8.9886 275.534 11.0847C272.858 12.4553 272.533 12.4553 272.533 11.246C272.452 8.42426 269.37 3.18395 266.937 1.97465C262.557 -0.282716 256.636 0.604104 254.121 3.82891C252.499 6.00565 252.904 9.87542 254.932 11.8103C255.987 12.7777 257.284 13.5839 257.852 13.5839C258.501 13.5839 258.014 12.8584 256.798 11.8909C255.419 10.7622 254.689 9.47232 254.689 7.94054C254.689 2.86147 262.638 1.24907 266.937 5.44131C271.317 9.7948 269.532 16.1638 263.124 19.2273C257.528 21.9684 252.337 21.1622 238.71 15.5994C221.596 8.50488 215.756 6.97309 208.293 7.37619C203.021 7.61805 201.399 8.10177 197.992 10.1979C194.586 12.294 193.774 12.4553 192.963 11.4878C191.828 10.1173 189.638 10.0367 188.34 11.3266C187.691 11.9715 187.042 11.7297 185.826 10.2785C184.933 9.23046 184.203 7.94053 184.122 7.45681C184.122 6.08627 181.364 3.90953 179.661 3.90953C178.85 3.90953 177.471 4.55449 176.66 5.28007C175.524 6.32813 174.957 6.40875 174.227 5.68317C171.874 3.34519 167.9 5.11883 167.9 8.50487V10.2785L165.223 8.74674C161.087 6.32813 154.76 5.36069 148.677 6.32813C143.729 7.13433 138.619 8.9886 120.612 16.4056C112.582 19.7111 106.256 20.6785 102.038 19.308C97.9822 18.018 94.8189 14.3901 94.3322 10.5204C93.9267 7.61805 94.17 6.89247 96.36 4.71573C98.3878 2.78085 99.5233 2.29713 102.524 2.29713C105.444 2.29713 106.418 2.70023 107.716 4.31263C109.662 6.73123 109.257 8.9886 106.418 11.1653C105.12 12.2134 104.877 12.7777 105.607 12.7777C108.77 12.7777 111.284 7.29557 109.824 3.50643C108.527 0.201005 100.659 -1.16954 96.36 1.16845Z" fill="#F3A40C"/>
</svg>
